<svg xmlns="http://www.w3.org/2000/svg" width="1202.213" height="499.95" viewBox="0 0 3607 1500">
  <defs>
    <style>
      .cls-1 {
        fill: #8845d4;
      }

      .cls-1, .cls-3, .cls-4 {
        fill-rule: evenodd;
      }

      .cls-2, .cls-4, .cls-5 {
        fill: #313131;
      }

      .cls-3 {
        fill: #015eb3;
      }

      .cls-5 {
        font-size: 498.828px;
        font-family: Corbel;
      }

      .cls-6 {
        font-weight: 700;
      }
    </style>
  </defs>
  <path id="Forma_5" data-name="Forma 5" class="cls-1" d="M-122,570"/>
  <circle id="Elipse_2" data-name="Elipse 2" class="cls-2" cx="543.5" cy="888.5" r="59.5"/>
  <path id="Forma_1" data-name="Forma 1" class="cls-3" d="M331,900L479,553c9.622-29.86,37.789-49.461,68-48.219,27.824,1.144,52.772,19.8,62,47.219L723,820l54-126a68.516,68.516,0,0,1,63-46c29.487-.573,56.463,18.419,66,47l53,123,118-275c13.31-32.557,50.6-47.07,80-34,26.26,11.673,40.93,43.013,32,73L1043,926a89.359,89.359,0,0,1-168-1l-33-78-36,81a90.187,90.187,0,0,1-168-2L544,705,442,943c-10.517,30.075-41.021,47.1-69,41.375C340.876,977.8,318.4,942.551,328,907Z"/>
  <path id="Forma_4" data-name="Forma 4" class="cls-4" d="M1199,1019c19.95-33.02,62.81-44.366,96-26,32.41,17.94,45.85,58.82,30,93-131.25,223.8-380.4,351.56-637,328-280.271-25.73-482.367-218.99-563-429.625-58.192-152.016-59.016-324.956,3-479.594C222.617,268.853,461.32,83.815,745,82c231.249-1.48,444.09,119.724,570,311,20.68,32.243,13,74.8-16,97-30.9,23.65-77.39,17.614-102-15-97.31-153.487-265.593-248.511-447-249-190.335-.513-373.8,103.806-466,278.781-82.038,155.694-75.261,335.7-3,479.594C355.222,1132.18,508.808,1259.31,711,1274c193.6,14.06,381.71-82.18,486-251Z"/>
  <text id="ART_WITH_CODES" data-name="ART WITH CODES" class="cls-5" transform="translate(1534.288 656.04) scale(0.936)">ART WITH<tspan class="cls-6" x="0" dy="598.593">CODES</tspan></text>
</svg>
